<mxfile host="app.diagrams.net" agent="Mozilla/5.0 (Windows NT 10.0; Win64; x64) AppleWebKit/537.36 (KHTML, like Gecko) Chrome/141.0.0.0 Safari/537.36 Edg/141.0.0.0" version="28.2.7" pages="3">
  <diagram name="第 1 页" id="AGeTJb8UVXcxk-UrsSAC">
    <mxGraphModel dx="2333" dy="1997" grid="1" gridSize="10" guides="1" tooltips="1" connect="1" arrows="1" fold="1" page="1" pageScale="1" pageWidth="827" pageHeight="1169" math="0" shadow="0">
      <root>
        <mxCell id="0" />
        <mxCell id="1" parent="0" />
        <mxCell id="s5sqYUR8IV8YNfl6m3ap-2" style="edgeStyle=orthogonalEdgeStyle;rounded=0;orthogonalLoop=1;jettySize=auto;html=1;entryX=0;entryY=0.5;entryDx=0;entryDy=0;" parent="1" source="s5sqYUR8IV8YNfl6m3ap-1" target="s5sqYUR8IV8YNfl6m3ap-3" edge="1">
          <mxGeometry relative="1" as="geometry">
            <mxPoint x="540" y="320" as="targetPoint" />
          </mxGeometry>
        </mxCell>
        <mxCell id="s5sqYUR8IV8YNfl6m3ap-1" value="破冰" style="ellipse;whiteSpace=wrap;html=1;" parent="1" vertex="1">
          <mxGeometry x="300" y="280" width="140" height="80" as="geometry" />
        </mxCell>
        <mxCell id="s5sqYUR8IV8YNfl6m3ap-7" value="" style="edgeStyle=orthogonalEdgeStyle;rounded=0;orthogonalLoop=1;jettySize=auto;html=1;" parent="1" source="s5sqYUR8IV8YNfl6m3ap-3" target="s5sqYUR8IV8YNfl6m3ap-6" edge="1">
          <mxGeometry relative="1" as="geometry" />
        </mxCell>
        <mxCell id="s5sqYUR8IV8YNfl6m3ap-8" value="这一层我要做什么呢" style="edgeLabel;html=1;align=center;verticalAlign=middle;resizable=0;points=[];" parent="s5sqYUR8IV8YNfl6m3ap-7" vertex="1" connectable="0">
          <mxGeometry x="0.0222" y="-2" relative="1" as="geometry">
            <mxPoint as="offset" />
          </mxGeometry>
        </mxCell>
        <mxCell id="s5sqYUR8IV8YNfl6m3ap-3" value="基础信息破冰层" style="ellipse;whiteSpace=wrap;html=1;" parent="1" vertex="1">
          <mxGeometry x="560" y="280" width="80" height="80" as="geometry" />
        </mxCell>
        <mxCell id="dfpeSX2jegoD5ngbccgk-2" value="" style="edgeStyle=orthogonalEdgeStyle;rounded=0;orthogonalLoop=1;jettySize=auto;html=1;" parent="1" source="s5sqYUR8IV8YNfl6m3ap-6" target="dfpeSX2jegoD5ngbccgk-1" edge="1">
          <mxGeometry relative="1" as="geometry">
            <Array as="points">
              <mxPoint x="880" y="310" />
              <mxPoint x="880" y="375" />
              <mxPoint x="1000" y="375" />
            </Array>
          </mxGeometry>
        </mxCell>
        <mxCell id="s5sqYUR8IV8YNfl6m3ap-6" value="了解基本信息" style="whiteSpace=wrap;html=1;" parent="1" vertex="1">
          <mxGeometry x="890" y="280" width="120" height="60" as="geometry" />
        </mxCell>
        <mxCell id="dfpeSX2jegoD5ngbccgk-5" value="" style="edgeStyle=orthogonalEdgeStyle;rounded=0;orthogonalLoop=1;jettySize=auto;html=1;" parent="1" source="dfpeSX2jegoD5ngbccgk-1" target="dfpeSX2jegoD5ngbccgk-4" edge="1">
          <mxGeometry relative="1" as="geometry" />
        </mxCell>
        <mxCell id="dfpeSX2jegoD5ngbccgk-31" style="edgeStyle=orthogonalEdgeStyle;rounded=0;orthogonalLoop=1;jettySize=auto;html=1;entryX=1;entryY=0.5;entryDx=0;entryDy=0;" parent="1" source="dfpeSX2jegoD5ngbccgk-1" target="dfpeSX2jegoD5ngbccgk-11" edge="1">
          <mxGeometry relative="1" as="geometry" />
        </mxCell>
        <mxCell id="dfpeSX2jegoD5ngbccgk-1" value="&lt;ul style=&quot;margin: 16px 0px; padding-left: 18px; color: rgb(15, 17, 21); font-family: quote-cjk-patch, Inter, system-ui, -apple-system, BlinkMacSystemFont, &amp;quot;Segoe UI&amp;quot;, Roboto, Oxygen, Ubuntu, Cantarell, &amp;quot;Open Sans&amp;quot;, &amp;quot;Helvetica Neue&amp;quot;, sans-serif; font-size: 16px; text-align: start; background-color: rgb(255, 255, 255);&quot;&gt;&lt;li&gt;&lt;p style=&quot;margin-top: 0px !important; margin-right: 0px; margin-bottom: 0px; margin-left: 0px;&quot; class=&quot;ds-markdown-paragraph&quot;&gt;&lt;span style=&quot;font-weight: 600;&quot;&gt;基本信息：&lt;/span&gt; 怎么称呼？来自哪里？（口音、家乡话题）&lt;/p&gt;&lt;/li&gt;&lt;li style=&quot;margin-top: 6px;&quot;&gt;&lt;p style=&quot;margin-top: 0px !important; margin-right: 0px; margin-bottom: 0px; margin-left: 0px;&quot; class=&quot;ds-markdown-paragraph&quot;&gt;&lt;span style=&quot;font-weight: 600;&quot;&gt;当前状态：&lt;/span&gt; 最近在忙什么？今天过得怎么样？&lt;/p&gt;&lt;/li&gt;&lt;li style=&quot;margin-top: 6px;&quot;&gt;&lt;p style=&quot;margin-top: 0px !important; margin-right: 0px; margin-bottom: 0px; margin-left: 0px;&quot; class=&quot;ds-markdown-paragraph&quot;&gt;&lt;span style=&quot;font-weight: 600;&quot;&gt;场景关联：&lt;/span&gt;&amp;nbsp;如果是特定场合认识的，可以聊“你是怎么认识活动主人的？”、“你觉得这个讲座/电影怎么样？”&lt;/p&gt;&lt;/li&gt;&lt;/ul&gt;" style="ellipse;whiteSpace=wrap;html=1;" parent="1" vertex="1">
          <mxGeometry x="810" y="552.5" width="790" height="317.5" as="geometry" />
        </mxCell>
        <mxCell id="dfpeSX2jegoD5ngbccgk-18" value="" style="edgeStyle=orthogonalEdgeStyle;rounded=0;orthogonalLoop=1;jettySize=auto;html=1;" parent="1" source="dfpeSX2jegoD5ngbccgk-3" target="dfpeSX2jegoD5ngbccgk-17" edge="1">
          <mxGeometry relative="1" as="geometry" />
        </mxCell>
        <mxCell id="dfpeSX2jegoD5ngbccgk-3" value="认真的倾听/仔细的询问" style="ellipse;whiteSpace=wrap;html=1;" parent="1" vertex="1">
          <mxGeometry x="1220" y="930" width="80" height="80" as="geometry" />
        </mxCell>
        <mxCell id="dfpeSX2jegoD5ngbccgk-6" style="edgeStyle=orthogonalEdgeStyle;rounded=0;orthogonalLoop=1;jettySize=auto;html=1;entryX=1;entryY=0.5;entryDx=0;entryDy=0;" parent="1" source="dfpeSX2jegoD5ngbccgk-4" target="dfpeSX2jegoD5ngbccgk-3" edge="1">
          <mxGeometry relative="1" as="geometry">
            <mxPoint x="780" y="810" as="targetPoint" />
          </mxGeometry>
        </mxCell>
        <mxCell id="dfpeSX2jegoD5ngbccgk-4" value="我们应该如何获取这些信息呢" style="rhombus;whiteSpace=wrap;html=1;" parent="1" vertex="1">
          <mxGeometry x="1060" y="860" width="80" height="80" as="geometry" />
        </mxCell>
        <mxCell id="dfpeSX2jegoD5ngbccgk-11" value="我们获取的这些信息有什么用呢,也就是话中悬外音" style="rhombus;whiteSpace=wrap;html=1;" parent="1" vertex="1">
          <mxGeometry x="550" y="540" width="160" height="115" as="geometry" />
        </mxCell>
        <mxCell id="dfpeSX2jegoD5ngbccgk-20" value="" style="edgeStyle=orthogonalEdgeStyle;rounded=0;orthogonalLoop=1;jettySize=auto;html=1;" parent="1" source="dfpeSX2jegoD5ngbccgk-17" target="dfpeSX2jegoD5ngbccgk-19" edge="1">
          <mxGeometry relative="1" as="geometry" />
        </mxCell>
        <mxCell id="dfpeSX2jegoD5ngbccgk-17" value="找到话里的信息和暴露量" style="rhombus;whiteSpace=wrap;html=1;" parent="1" vertex="1">
          <mxGeometry x="1210" y="1020" width="80" height="80" as="geometry" />
        </mxCell>
        <mxCell id="dfpeSX2jegoD5ngbccgk-22" value="" style="edgeStyle=orthogonalEdgeStyle;rounded=0;orthogonalLoop=1;jettySize=auto;html=1;" parent="1" source="dfpeSX2jegoD5ngbccgk-19" target="dfpeSX2jegoD5ngbccgk-21" edge="1">
          <mxGeometry relative="1" as="geometry" />
        </mxCell>
        <mxCell id="dfpeSX2jegoD5ngbccgk-19" value="我们要如何找呢" style="whiteSpace=wrap;html=1;" parent="1" vertex="1">
          <mxGeometry x="1200" y="1130" width="120" height="60" as="geometry" />
        </mxCell>
        <mxCell id="dfpeSX2jegoD5ngbccgk-27" value="" style="edgeStyle=orthogonalEdgeStyle;rounded=0;orthogonalLoop=1;jettySize=auto;html=1;entryX=0.5;entryY=0;entryDx=0;entryDy=0;" parent="1" source="dfpeSX2jegoD5ngbccgk-21" target="dfpeSX2jegoD5ngbccgk-30" edge="1">
          <mxGeometry relative="1" as="geometry">
            <mxPoint x="600" y="1260" as="targetPoint" />
          </mxGeometry>
        </mxCell>
        <mxCell id="dfpeSX2jegoD5ngbccgk-21" value="钩子就是只有他才能说出来的东西，不是所有人都能说出来的" style="ellipse;whiteSpace=wrap;html=1;" parent="1" vertex="1">
          <mxGeometry x="1151" y="1270" width="180" height="120" as="geometry" />
        </mxCell>
        <mxCell id="dfpeSX2jegoD5ngbccgk-63" style="edgeStyle=orthogonalEdgeStyle;rounded=0;orthogonalLoop=1;jettySize=auto;html=1;" parent="1" source="dfpeSX2jegoD5ngbccgk-30" edge="1">
          <mxGeometry relative="1" as="geometry">
            <mxPoint x="650" y="1450" as="targetPoint" />
            <Array as="points">
              <mxPoint x="860" y="1590" />
              <mxPoint x="860" y="1590" />
            </Array>
          </mxGeometry>
        </mxCell>
        <mxCell id="dfpeSX2jegoD5ngbccgk-30" value="&lt;h3 style=&quot;font-variant-numeric: normal; font-variant-east-asian: normal; font-variant-alternates: normal; font-size-adjust: none; font-kerning: auto; font-optical-sizing: auto; font-feature-settings: normal; font-variation-settings: normal; font-variant-position: normal; font-variant-emoji: normal; font-stretch: normal; font-size: 20px; line-height: 30px; font-family: quote-cjk-patch, Inter, system-ui, -apple-system, BlinkMacSystemFont, &amp;quot;Segoe UI&amp;quot;, Roboto, Oxygen, Ubuntu, Cantarell, &amp;quot;Open Sans&amp;quot;, &amp;quot;Helvetica Neue&amp;quot;, sans-serif; margin: 32px 0px 16px; color: rgb(15, 17, 21); text-align: start; background-color: rgb(255, 255, 255);&quot;&gt;&lt;span style=&quot;font-weight: inherit;&quot;&gt;钩子”的几种常见类型和例子&lt;/span&gt;&lt;/h3&gt;&lt;p style=&quot;margin: 16px 0px; color: rgb(15, 17, 21); font-family: quote-cjk-patch, Inter, system-ui, -apple-system, BlinkMacSystemFont, &amp;quot;Segoe UI&amp;quot;, Roboto, Oxygen, Ubuntu, Cantarell, &amp;quot;Open Sans&amp;quot;, &amp;quot;Helvetica Neue&amp;quot;, sans-serif; font-size: 16px; text-align: start; background-color: rgb(255, 255, 255);&quot; class=&quot;ds-markdown-paragraph&quot;&gt;让我们用刚才的模拟对话来彻底讲清楚：&lt;/p&gt;&lt;p style=&quot;margin: 16px 0px; color: rgb(15, 17, 21); font-family: quote-cjk-patch, Inter, system-ui, -apple-system, BlinkMacSystemFont, &amp;quot;Segoe UI&amp;quot;, Roboto, Oxygen, Ubuntu, Cantarell, &amp;quot;Open Sans&amp;quot;, &amp;quot;Helvetica Neue&amp;quot;, sans-serif; font-size: 16px; text-align: start; background-color: rgb(255, 255, 255);&quot; class=&quot;ds-markdown-paragraph&quot;&gt;&lt;span style=&quot;font-weight: 600;&quot;&gt;1. 情绪钩子（最容易识别）&lt;/span&gt;&lt;/p&gt;&lt;ul style=&quot;margin: 16px 0px; padding-left: 18px; color: rgb(15, 17, 21); font-family: quote-cjk-patch, Inter, system-ui, -apple-system, BlinkMacSystemFont, &amp;quot;Segoe UI&amp;quot;, Roboto, Oxygen, Ubuntu, Cantarell, &amp;quot;Open Sans&amp;quot;, &amp;quot;Helvetica Neue&amp;quot;, sans-serif; font-size: 16px; text-align: start; background-color: rgb(255, 255, 255);&quot;&gt;&lt;li&gt;&lt;p style=&quot;margin-top: 0px !important; margin-right: 0px; margin-bottom: 0px; margin-left: 0px;&quot; class=&quot;ds-markdown-paragraph&quot;&gt;&lt;span style=&quot;font-weight: 600;&quot;&gt;对方的话：&lt;/span&gt;&amp;nbsp;“这个项目总算做完了，&lt;span style=&quot;font-weight: 600;&quot;&gt;快累死了&lt;/span&gt;。”&lt;/p&gt;&lt;/li&gt;&lt;li style=&quot;margin-top: 6px;&quot;&gt;&lt;p style=&quot;margin-top: 0px !important; margin-right: 0px; margin-bottom: 0px; margin-left: 0px;&quot; class=&quot;ds-markdown-paragraph&quot;&gt;&lt;span style=&quot;font-weight: 600;&quot;&gt;钩子：&lt;/span&gt;&amp;nbsp;“&lt;span style=&quot;font-weight: 600;&quot;&gt;快累死了&lt;/span&gt;”（情绪：疲惫、解脱）&lt;/p&gt;&lt;/li&gt;&lt;li style=&quot;margin-top: 6px;&quot;&gt;&lt;p style=&quot;margin-top: 0px !important; margin-right: 0px; margin-bottom: 0px; margin-left: 0px;&quot; class=&quot;ds-markdown-paragraph&quot;&gt;&lt;span style=&quot;font-weight: 600;&quot;&gt;抓住钩子：&lt;/span&gt;&amp;nbsp;“听起来这是一场硬仗啊！现在最想干嘛，大睡一觉还是大吃一顿？”（接住疲惫，关心Ta的状态）&lt;/p&gt;&lt;/li&gt;&lt;/ul&gt;&lt;p style=&quot;margin: 16px 0px; color: rgb(15, 17, 21); font-family: quote-cjk-patch, Inter, system-ui, -apple-system, BlinkMacSystemFont, &amp;quot;Segoe UI&amp;quot;, Roboto, Oxygen, Ubuntu, Cantarell, &amp;quot;Open Sans&amp;quot;, &amp;quot;Helvetica Neue&amp;quot;, sans-serif; font-size: 16px; text-align: start; background-color: rgb(255, 255, 255);&quot; class=&quot;ds-markdown-paragraph&quot;&gt;&lt;span style=&quot;font-weight: 600;&quot;&gt;2. 个人经历/故事钩子（最有价值）&lt;/span&gt;&lt;/p&gt;&lt;ul style=&quot;margin: 16px 0px; padding-left: 18px; color: rgb(15, 17, 21); font-family: quote-cjk-patch, Inter, system-ui, -apple-system, BlinkMacSystemFont, &amp;quot;Segoe UI&amp;quot;, Roboto, Oxygen, Ubuntu, Cantarell, &amp;quot;Open Sans&amp;quot;, &amp;quot;Helvetica Neue&amp;quot;, sans-serif; font-size: 16px; text-align: start; background-color: rgb(255, 255, 255);&quot;&gt;&lt;li&gt;&lt;p style=&quot;margin-top: 0px !important; margin-right: 0px; margin-bottom: 8px; margin-left: 0px;&quot; class=&quot;ds-markdown-paragraph&quot;&gt;&lt;span style=&quot;font-weight: 600;&quot;&gt;刚才对话中的例子：&lt;/span&gt;&lt;/p&gt;&lt;ul style=&quot;margin: 4px 0px 0px; padding-left: 18px;&quot;&gt;&lt;li&gt;&lt;p style=&quot;margin-top: 0px !important; margin-right: 0px; margin-bottom: 0px; margin-left: 0px;&quot; class=&quot;ds-markdown-paragraph&quot;&gt;&lt;span style=&quot;font-weight: 600;&quot;&gt;对方的话：&lt;/span&gt;&amp;nbsp;“&lt;span style=&quot;font-weight: 600;&quot;&gt;我建议你&lt;/span&gt;傍晚上去（广州塔）。”&lt;/p&gt;&lt;/li&gt;&lt;li style=&quot;margin-top: 6px;&quot;&gt;&lt;p style=&quot;margin-top: 0px !important; margin-right: 0px; margin-bottom: 0px; margin-left: 0px;&quot; class=&quot;ds-markdown-paragraph&quot;&gt;&lt;span style=&quot;font-weight: 600;&quot;&gt;钩子：&lt;/span&gt;&amp;nbsp;“&lt;span style=&quot;font-weight: 600;&quot;&gt;我建议你&lt;/span&gt;” 或 “傍晚上去”（这背后隐藏着对方的个人经验）&lt;/p&gt;&lt;/li&gt;&lt;li style=&quot;margin-top: 6px;&quot;&gt;&lt;p style=&quot;margin-top: 0px !important; margin-right: 0px; margin-bottom: 0px; margin-left: 0px;&quot; class=&quot;ds-markdown-paragraph&quot;&gt;&lt;span style=&quot;font-weight: 600;&quot;&gt;抓住钩子：&lt;/span&gt;&amp;nbsp;“你这个建议好专业！&lt;span style=&quot;font-weight: 600;&quot;&gt;你是不是去过好几次了？&lt;/span&gt;”（追问个人经历）&lt;/p&gt;&lt;/li&gt;&lt;/ul&gt;&lt;/li&gt;&lt;/ul&gt;&lt;p style=&quot;margin: 16px 0px; color: rgb(15, 17, 21); font-family: quote-cjk-patch, Inter, system-ui, -apple-system, BlinkMacSystemFont, &amp;quot;Segoe UI&amp;quot;, Roboto, Oxygen, Ubuntu, Cantarell, &amp;quot;Open Sans&amp;quot;, &amp;quot;Helvetica Neue&amp;quot;, sans-serif; font-size: 16px; text-align: start; background-color: rgb(255, 255, 255);&quot; class=&quot;ds-markdown-paragraph&quot;&gt;&lt;span style=&quot;font-weight: 600;&quot;&gt;3. 细节描述钩子（让画面感更强）&lt;/span&gt;&lt;/p&gt;&lt;ul style=&quot;margin: 16px 0px; padding-left: 18px; color: rgb(15, 17, 21); font-family: quote-cjk-patch, Inter, system-ui, -apple-system, BlinkMacSystemFont, &amp;quot;Segoe UI&amp;quot;, Roboto, Oxygen, Ubuntu, Cantarell, &amp;quot;Open Sans&amp;quot;, &amp;quot;Helvetica Neue&amp;quot;, sans-serif; font-size: 16px; text-align: start; background-color: rgb(255, 255, 255);&quot;&gt;&lt;li&gt;&lt;p style=&quot;margin-top: 0px !important; margin-right: 0px; margin-bottom: 0px; margin-left: 0px;&quot; class=&quot;ds-markdown-paragraph&quot;&gt;&lt;span style=&quot;font-weight: 600;&quot;&gt;对方的话：&lt;/span&gt;&amp;nbsp;“我周末去爬山了，那山&lt;span style=&quot;font-weight: 600;&quot;&gt;陡得我腿都在抖&lt;/span&gt;。”&lt;/p&gt;&lt;/li&gt;&lt;li style=&quot;margin-top: 6px;&quot;&gt;&lt;p style=&quot;margin-top: 0px !important; margin-right: 0px; margin-bottom: 0px; margin-left: 0px;&quot; class=&quot;ds-markdown-paragraph&quot;&gt;&lt;span style=&quot;font-weight: 600;&quot;&gt;钩子：&lt;/span&gt;&amp;nbsp;“&lt;span style=&quot;font-weight: 600;&quot;&gt;陡得我腿都在抖&lt;/span&gt;”（生动的细节）&lt;/p&gt;&lt;/li&gt;&lt;li style=&quot;margin-top: 6px;&quot;&gt;&lt;p style=&quot;margin-top: 0px !important; margin-right: 0px; margin-bottom: 0px; margin-left: 0px;&quot; class=&quot;ds-markdown-paragraph&quot;&gt;&lt;span style=&quot;font-weight: 600;&quot;&gt;抓住钩子：&lt;/span&gt;&amp;nbsp;“哈哈，‘腿都在抖’这个形容太有画面感了！是哪座山这么有挑战性？”（抓住细节，追问具体信息）&lt;/p&gt;&lt;/li&gt;&lt;/ul&gt;&lt;p style=&quot;margin: 16px 0px; color: rgb(15, 17, 21); font-family: quote-cjk-patch, Inter, system-ui, -apple-system, BlinkMacSystemFont, &amp;quot;Segoe UI&amp;quot;, Roboto, Oxygen, Ubuntu, Cantarell, &amp;quot;Open Sans&amp;quot;, &amp;quot;Helvetica Neue&amp;quot;, sans-serif; font-size: 16px; text-align: start; background-color: rgb(255, 255, 255);&quot; class=&quot;ds-markdown-paragraph&quot;&gt;&lt;span style=&quot;font-weight: 600;&quot;&gt;4. 观点/评价钩子（引发深度讨论）&lt;/span&gt;&lt;/p&gt;&lt;ul style=&quot;margin: 16px 0px; padding-left: 18px; color: rgb(15, 17, 21); font-family: quote-cjk-patch, Inter, system-ui, -apple-system, BlinkMacSystemFont, &amp;quot;Segoe UI&amp;quot;, Roboto, Oxygen, Ubuntu, Cantarell, &amp;quot;Open Sans&amp;quot;, &amp;quot;Helvetica Neue&amp;quot;, sans-serif; font-size: 16px; text-align: start; background-color: rgb(255, 255, 255);&quot;&gt;&lt;li&gt;&lt;p style=&quot;margin-top: 0px !important; margin-right: 0px; margin-bottom: 0px; margin-left: 0px;&quot; class=&quot;ds-markdown-paragraph&quot;&gt;&lt;span style=&quot;font-weight: 600;&quot;&gt;对方的话：&lt;/span&gt;&amp;nbsp;“我觉得&lt;span style=&quot;font-weight: 600;&quot;&gt;现在的手机更新换代太快了，真没必要追新&lt;/span&gt;。”&lt;/p&gt;&lt;/li&gt;&lt;li style=&quot;margin-top: 6px;&quot;&gt;&lt;p style=&quot;margin-top: 0px !important; margin-right: 0px; margin-bottom: 0px; margin-left: 0px;&quot; class=&quot;ds-markdown-paragraph&quot;&gt;&lt;span style=&quot;font-weight: 600;&quot;&gt;钩子：&lt;/span&gt;&amp;nbsp;“&lt;span style=&quot;font-weight: 600;&quot;&gt;真没必要追新&lt;/span&gt;”（个人观点）&lt;/p&gt;&lt;/li&gt;&lt;li style=&quot;margin-top: 6px;&quot;&gt;&lt;p style=&quot;margin-top: 0px !important; margin-right: 0px; margin-bottom: 0px; margin-left: 0px;&quot; class=&quot;ds-markdown-paragraph&quot;&gt;&lt;span style=&quot;font-weight: 600;&quot;&gt;抓住钩子：&lt;/span&gt;&amp;nbsp;“我也有同感！那你觉得一款手机用到什么程度才算‘物尽其用’呢？”（接住观点，进行探讨）&lt;/p&gt;&lt;/li&gt;&lt;/ul&gt;" style="rounded=1;whiteSpace=wrap;html=1;" parent="1" vertex="1">
          <mxGeometry x="-150" y="1880" width="874" height="708" as="geometry" />
        </mxCell>
        <mxCell id="dfpeSX2jegoD5ngbccgk-42" value="" style="edgeStyle=orthogonalEdgeStyle;rounded=0;orthogonalLoop=1;jettySize=auto;html=1;" parent="1" source="dfpeSX2jegoD5ngbccgk-32" target="dfpeSX2jegoD5ngbccgk-41" edge="1">
          <mxGeometry relative="1" as="geometry" />
        </mxCell>
        <mxCell id="dfpeSX2jegoD5ngbccgk-32" value="&lt;p class=&quot;MsoNormal&quot;&gt;&lt;span style=&quot;mso-spacerun:&#39;yes&#39;;font-family:宋体;mso-ascii-font-family:Calibri;&lt;br/&gt;mso-hansi-font-family:Calibri;mso-bidi-font-family:&#39;Times New Roman&#39;;font-size:10.5000pt;&lt;br/&gt;mso-font-kerning:1.0000pt;&quot;&gt;朋友说：广州塔的日出，日落好看&lt;/span&gt;&lt;span style=&quot;mso-spacerun:&#39;yes&#39;;font-family:宋体;mso-ascii-font-family:Calibri;&lt;br/&gt;mso-hansi-font-family:Calibri;mso-bidi-font-family:&#39;Times New Roman&#39;;font-size:10.5000pt;&lt;br/&gt;mso-font-kerning:1.0000pt;&quot;&gt;&lt;/span&gt;&lt;/p&gt;&lt;p class=&quot;MsoNormal&quot;&gt;&lt;span style=&quot;mso-spacerun:&#39;yes&#39;;font-family:宋体;mso-ascii-font-family:Calibri;&lt;br/&gt;mso-hansi-font-family:Calibri;mso-bidi-font-family:&#39;Times New Roman&#39;;font-size:10.5000pt;&lt;br/&gt;mso-font-kerning:1.0000pt;&quot;&gt;我说：北京的日落更好看&lt;/span&gt;&lt;span style=&quot;mso-spacerun:&#39;yes&#39;;font-family:宋体;mso-ascii-font-family:Calibri;&lt;br/&gt;mso-hansi-font-family:Calibri;mso-bidi-font-family:&#39;Times New Roman&#39;;font-size:10.5000pt;&lt;br/&gt;mso-font-kerning:1.0000pt;&quot;&gt;&lt;/span&gt;&lt;/p&gt;&lt;p class=&quot;MsoNormal&quot;&gt;&lt;span style=&quot;mso-spacerun:&#39;yes&#39;;font-family:宋体;mso-ascii-font-family:Calibri;&lt;br/&gt;mso-hansi-font-family:Calibri;mso-bidi-font-family:&#39;Times New Roman&#39;;font-size:10.5000pt;&lt;br/&gt;mso-font-kerning:1.0000pt;&quot;&gt;我抓住了日落的钩子&lt;/span&gt;&lt;span style=&quot;mso-spacerun:&#39;yes&#39;;font-family:宋体;mso-ascii-font-family:Calibri;&lt;br/&gt;mso-hansi-font-family:Calibri;mso-bidi-font-family:&#39;Times New Roman&#39;;font-size:10.5000pt;&lt;br/&gt;mso-font-kerning:1.0000pt;&quot;&gt;&lt;/span&gt;&lt;/p&gt;&lt;p class=&quot;MsoNormal&quot;&gt;&lt;span style=&quot;mso-spacerun:&#39;yes&#39;;font-family:宋体;mso-ascii-font-family:Calibri;&lt;br/&gt;mso-hansi-font-family:Calibri;mso-bidi-font-family:&#39;Times New Roman&#39;;font-size:10.5000pt;&lt;br/&gt;mso-font-kerning:1.0000pt;&quot;&gt;这句话存在什么问题&lt;/span&gt;&lt;span style=&quot;mso-spacerun:&#39;yes&#39;;font-family:Calibri;mso-fareast-font-family:宋体;&lt;br/&gt;mso-bidi-font-family:&#39;Times New Roman&#39;;font-size:10.5000pt;mso-font-kerning:1.0000pt;&quot;&gt;&lt;/span&gt;&lt;/p&gt;" style="whiteSpace=wrap;html=1;" parent="1" vertex="1">
          <mxGeometry x="530" y="1290" width="235" height="160" as="geometry" />
        </mxCell>
        <mxCell id="dfpeSX2jegoD5ngbccgk-44" value="" style="edgeStyle=orthogonalEdgeStyle;rounded=0;orthogonalLoop=1;jettySize=auto;html=1;" parent="1" source="dfpeSX2jegoD5ngbccgk-41" target="dfpeSX2jegoD5ngbccgk-43" edge="1">
          <mxGeometry relative="1" as="geometry" />
        </mxCell>
        <mxCell id="dfpeSX2jegoD5ngbccgk-41" value="&lt;p style=&quot;margin: 16px 0px; color: rgb(15, 17, 21); font-family: quote-cjk-patch, Inter, system-ui, -apple-system, BlinkMacSystemFont, &amp;quot;Segoe UI&amp;quot;, Roboto, Oxygen, Ubuntu, Cantarell, &amp;quot;Open Sans&amp;quot;, &amp;quot;Helvetica Neue&amp;quot;, sans-serif; font-size: 16px; text-align: start; background-color: rgb(255, 255, 255);&quot; class=&quot;ds-markdown-paragraph&quot;&gt;你的错误在于把一场&lt;span style=&quot;font-weight: 600;&quot;&gt;朋友间的分享&lt;/span&gt;，变成了一场&lt;span style=&quot;font-weight: 600;&quot;&gt;无关紧要的竞赛&lt;/span&gt;。你抓住了“日落”这个词，但弄丢了“朋友想和你分享美好”这个最重要的钩子。&lt;/p&gt;&lt;p style=&quot;margin-top: 16px; margin-right: 0px; margin-left: 0px; color: rgb(15, 17, 21); font-family: quote-cjk-patch, Inter, system-ui, -apple-system, BlinkMacSystemFont, &amp;quot;Segoe UI&amp;quot;, Roboto, Oxygen, Ubuntu, Cantarell, &amp;quot;Open Sans&amp;quot;, &amp;quot;Helvetica Neue&amp;quot;, sans-serif; font-size: 16px; text-align: start; background-color: rgb(255, 255, 255); margin-bottom: 0px !important;&quot; class=&quot;ds-markdown-paragraph&quot;&gt;记住一个原则：在社交中，&lt;span style=&quot;font-weight: 600;&quot;&gt;当对方分享感受时，优先回应情绪，而不是事实；优先寻求联结，而不是竞争。&lt;/span&gt;&lt;/p&gt;" style="whiteSpace=wrap;html=1;" parent="1" vertex="1">
          <mxGeometry x="-280" y="1320" width="330" height="190" as="geometry" />
        </mxCell>
        <mxCell id="dfpeSX2jegoD5ngbccgk-46" value="" style="edgeStyle=orthogonalEdgeStyle;rounded=0;orthogonalLoop=1;jettySize=auto;html=1;" parent="1" source="dfpeSX2jegoD5ngbccgk-43" target="dfpeSX2jegoD5ngbccgk-45" edge="1">
          <mxGeometry relative="1" as="geometry" />
        </mxCell>
        <mxCell id="dfpeSX2jegoD5ngbccgk-43" value="正确的方法" style="rhombus;whiteSpace=wrap;html=1;" parent="1" vertex="1">
          <mxGeometry x="155" y="1150" width="80" height="80" as="geometry" />
        </mxCell>
        <mxCell id="dfpeSX2jegoD5ngbccgk-48" value="" style="edgeStyle=orthogonalEdgeStyle;rounded=0;orthogonalLoop=1;jettySize=auto;html=1;" parent="1" source="dfpeSX2jegoD5ngbccgk-45" target="dfpeSX2jegoD5ngbccgk-47" edge="1">
          <mxGeometry relative="1" as="geometry" />
        </mxCell>
        <mxCell id="dfpeSX2jegoD5ngbccgk-45" value="认同他的观点，认同观点不是简单的认同，而是能顺着他的话说下去" style="whiteSpace=wrap;html=1;" parent="1" vertex="1">
          <mxGeometry x="321" y="1100" width="185" height="120" as="geometry" />
        </mxCell>
        <mxCell id="dfpeSX2jegoD5ngbccgk-50" value="" style="edgeStyle=orthogonalEdgeStyle;rounded=0;orthogonalLoop=1;jettySize=auto;html=1;entryX=0.5;entryY=1;entryDx=0;entryDy=0;" parent="1" source="dfpeSX2jegoD5ngbccgk-47" target="dfpeSX2jegoD5ngbccgk-52" edge="1">
          <mxGeometry relative="1" as="geometry">
            <mxPoint x="455.70000000000005" y="920" as="targetPoint" />
          </mxGeometry>
        </mxCell>
        <mxCell id="dfpeSX2jegoD5ngbccgk-47" value="&lt;span style=&quot;color: rgb(15, 17, 21); font-family: quote-cjk-patch, Inter, system-ui, -apple-system, BlinkMacSystemFont, &amp;quot;Segoe UI&amp;quot;, Roboto, Oxygen, Ubuntu, Cantarell, &amp;quot;Open Sans&amp;quot;, &amp;quot;Helvetica Neue&amp;quot;, sans-serif; font-size: 16px; text-align: start; white-space-collapse: preserve;&quot;&gt;广州塔上的日出好美，这应该是最接近太阳的地方了，好像伸手就可以触摸到&lt;/span&gt;" style="whiteSpace=wrap;html=1;labelBackgroundColor=none;" parent="1" vertex="1">
          <mxGeometry x="380" y="960" width="212.5" height="80" as="geometry" />
        </mxCell>
        <mxCell id="dfpeSX2jegoD5ngbccgk-56" value="" style="edgeStyle=orthogonalEdgeStyle;rounded=0;orthogonalLoop=1;jettySize=auto;html=1;" parent="1" source="dfpeSX2jegoD5ngbccgk-52" target="dfpeSX2jegoD5ngbccgk-55" edge="1">
          <mxGeometry relative="1" as="geometry" />
        </mxCell>
        <mxCell id="dfpeSX2jegoD5ngbccgk-52" value="&lt;span style=&quot;font-weight: 600; color: rgb(15, 17, 21); font-family: quote-cjk-patch, Inter, system-ui, -apple-system, BlinkMacSystemFont, &amp;quot;Segoe UI&amp;quot;, Roboto, Oxygen, Ubuntu, Cantarell, &amp;quot;Open Sans&amp;quot;, &amp;quot;Helvetica Neue&amp;quot;, sans-serif; font-size: 16px; text-align: start; background-color: rgb(255, 255, 255);&quot;&gt;后者是高质量对话的标志。&lt;/span&gt;&lt;span style=&quot;color: rgb(15, 17, 21); font-family: quote-cjk-patch, Inter, system-ui, -apple-system, BlinkMacSystemFont, &amp;quot;Segoe UI&amp;quot;, Roboto, Oxygen, Ubuntu, Cantarell, &amp;quot;Open Sans&amp;quot;, &amp;quot;Helvetica Neue&amp;quot;, sans-serif; font-size: 16px; text-align: start; background-color: rgb(255, 255, 255);&quot;&gt;&amp;nbsp;你不仅证明了你已经理解了什么是“钩子”，更展示了如何通过共情和想象力，让一个简单的钩子演变成一次愉悦的、有来有回的深度交流。&lt;/span&gt;" style="rounded=0;whiteSpace=wrap;html=1;" parent="1" vertex="1">
          <mxGeometry x="351.25" y="770" width="270" height="120" as="geometry" />
        </mxCell>
        <mxCell id="dfpeSX2jegoD5ngbccgk-60" value="" style="edgeStyle=orthogonalEdgeStyle;rounded=0;orthogonalLoop=1;jettySize=auto;html=1;" parent="1" source="dfpeSX2jegoD5ngbccgk-55" target="dfpeSX2jegoD5ngbccgk-59" edge="1">
          <mxGeometry relative="1" as="geometry" />
        </mxCell>
        <mxCell id="dfpeSX2jegoD5ngbccgk-65" value="" style="edgeStyle=orthogonalEdgeStyle;rounded=0;orthogonalLoop=1;jettySize=auto;html=1;" parent="1" source="dfpeSX2jegoD5ngbccgk-55" target="dfpeSX2jegoD5ngbccgk-64" edge="1">
          <mxGeometry relative="1" as="geometry" />
        </mxCell>
        <mxCell id="WU8Q_QROA6nWLspVZ2c3-45" value="" style="edgeStyle=orthogonalEdgeStyle;rounded=0;orthogonalLoop=1;jettySize=auto;html=1;entryX=0.5;entryY=1;entryDx=0;entryDy=0;" parent="1" source="dfpeSX2jegoD5ngbccgk-55" target="WU8Q_QROA6nWLspVZ2c3-47" edge="1">
          <mxGeometry relative="1" as="geometry">
            <mxPoint x="-211.875" y="614.9947961973405" as="targetPoint" />
          </mxGeometry>
        </mxCell>
        <mxCell id="WU8Q_QROA6nWLspVZ2c3-46" value="问题" style="edgeLabel;html=1;align=center;verticalAlign=middle;resizable=0;points=[];" parent="WU8Q_QROA6nWLspVZ2c3-45" vertex="1" connectable="0">
          <mxGeometry x="0.0915" relative="1" as="geometry">
            <mxPoint as="offset" />
          </mxGeometry>
        </mxCell>
        <mxCell id="dfpeSX2jegoD5ngbccgk-55" value="高端的技巧就是，&lt;div&gt;朋友说美&lt;/div&gt;&lt;div&gt;你能说出那么美&lt;/div&gt;&lt;div&gt;朋友说好看，你能说出哪里好看&lt;/div&gt;&lt;div&gt;这就是情感共鸣和认同的基础&lt;/div&gt;" style="whiteSpace=wrap;html=1;rounded=0;" parent="1" vertex="1">
          <mxGeometry x="-310" y="720" width="196.25" height="170" as="geometry" />
        </mxCell>
        <mxCell id="dfpeSX2jegoD5ngbccgk-61" style="edgeStyle=orthogonalEdgeStyle;rounded=0;orthogonalLoop=1;jettySize=auto;html=1;entryX=0;entryY=0.5;entryDx=0;entryDy=0;" parent="1" source="dfpeSX2jegoD5ngbccgk-59" target="dfpeSX2jegoD5ngbccgk-47" edge="1">
          <mxGeometry relative="1" as="geometry" />
        </mxCell>
        <mxCell id="dfpeSX2jegoD5ngbccgk-59" value="在加上足够的想象和比喻" style="rhombus;whiteSpace=wrap;html=1;rounded=0;" parent="1" vertex="1">
          <mxGeometry x="-150" y="940" width="161.88" height="105" as="geometry" />
        </mxCell>
        <mxCell id="dfpeSX2jegoD5ngbccgk-64" value="这就是传说中的情感共鸣，深入交流的必须品，必要的技巧" style="shape=singleArrow;whiteSpace=wrap;html=1;arrowWidth=0.4;arrowSize=0.4;rounded=0;" parent="1" vertex="1">
          <mxGeometry x="-775" y="665" width="361.88" height="145" as="geometry" />
        </mxCell>
        <mxCell id="dfpeSX2jegoD5ngbccgk-68" style="edgeStyle=orthogonalEdgeStyle;rounded=0;orthogonalLoop=1;jettySize=auto;html=1;entryX=0;entryY=0.5;entryDx=0;entryDy=0;" parent="1" source="dfpeSX2jegoD5ngbccgk-67" target="dfpeSX2jegoD5ngbccgk-55" edge="1">
          <mxGeometry relative="1" as="geometry" />
        </mxCell>
        <mxCell id="dfpeSX2jegoD5ngbccgk-67" value="你说漂亮他能说出来哪里漂亮，并且你们的观点相同" style="shape=singleArrow;whiteSpace=wrap;html=1;arrowWidth=0.4;arrowSize=0.4;rounded=0;" parent="1" vertex="1">
          <mxGeometry x="-758.12" y="880" width="345" height="145" as="geometry" />
        </mxCell>
        <mxCell id="WU8Q_QROA6nWLspVZ2c3-49" value="" style="edgeStyle=orthogonalEdgeStyle;rounded=0;orthogonalLoop=1;jettySize=auto;html=1;" parent="1" source="WU8Q_QROA6nWLspVZ2c3-47" target="WU8Q_QROA6nWLspVZ2c3-48" edge="1">
          <mxGeometry relative="1" as="geometry" />
        </mxCell>
        <mxCell id="WU8Q_QROA6nWLspVZ2c3-52" value="虽然两个人的观点不一样但是这也是一种共鸣，而且是一种高级共鸣" style="edgeLabel;html=1;align=center;verticalAlign=middle;resizable=0;points=[];" parent="WU8Q_QROA6nWLspVZ2c3-49" vertex="1" connectable="0">
          <mxGeometry x="0.1984" y="2" relative="1" as="geometry">
            <mxPoint as="offset" />
          </mxGeometry>
        </mxCell>
        <mxCell id="WU8Q_QROA6nWLspVZ2c3-47" value="就是是说美，说漂亮，但是每个人说漂亮的程度和角度不同，我们该怎么解决呢" style="whiteSpace=wrap;html=1;aspect=fixed;" parent="1" vertex="1">
          <mxGeometry x="-100" y="470" width="172" height="172" as="geometry" />
        </mxCell>
        <mxCell id="WU8Q_QROA6nWLspVZ2c3-54" value="" style="edgeStyle=orthogonalEdgeStyle;rounded=0;orthogonalLoop=1;jettySize=auto;html=1;entryX=0;entryY=0.5;entryDx=0;entryDy=0;" parent="1" source="WU8Q_QROA6nWLspVZ2c3-48" target="WU8Q_QROA6nWLspVZ2c3-65" edge="1">
          <mxGeometry relative="1" as="geometry">
            <mxPoint x="-30" y="307" as="targetPoint" />
            <Array as="points">
              <mxPoint x="-594" y="-50" />
              <mxPoint x="-590" y="-50" />
              <mxPoint x="-590" y="-490" />
              <mxPoint x="-680" y="-490" />
            </Array>
          </mxGeometry>
        </mxCell>
        <mxCell id="WU8Q_QROA6nWLspVZ2c3-55" value="既然观点不一样也是共鸣，那共鸣的特点是什么呢" style="edgeLabel;html=1;align=center;verticalAlign=middle;resizable=0;points=[];" parent="WU8Q_QROA6nWLspVZ2c3-54" vertex="1" connectable="0">
          <mxGeometry x="-0.1177" relative="1" as="geometry">
            <mxPoint as="offset" />
          </mxGeometry>
        </mxCell>
        <mxCell id="WU8Q_QROA6nWLspVZ2c3-48" value="&lt;p class=&quot;MsoNormal&quot;&gt;&lt;span style=&quot;mso-spacerun:&#39;yes&#39;;font-family:宋体;mso-ascii-font-family:Calibri;&lt;br/&gt;mso-hansi-font-family:Calibri;mso-bidi-font-family:&#39;Times New Roman&#39;;font-size:10.5000pt;&lt;br/&gt;mso-font-kerning:1.0000pt;&quot;&gt;朋友觉得：广州塔的日出，日落代表着时间流逝&lt;/span&gt;&lt;span style=&quot;mso-spacerun:&#39;yes&#39;;font-family:宋体;mso-ascii-font-family:Calibri;&lt;br/&gt;mso-hansi-font-family:Calibri;mso-bidi-font-family:&#39;Times New Roman&#39;;font-size:10.5000pt;&lt;br/&gt;mso-font-kerning:1.0000pt;&quot;&gt;&lt;/span&gt;&lt;/p&gt;&lt;p class=&quot;MsoNormal&quot;&gt;&lt;span style=&quot;mso-spacerun:&#39;yes&#39;;font-family:宋体;mso-ascii-font-family:Calibri;&lt;br/&gt;mso-hansi-font-family:Calibri;mso-bidi-font-family:&#39;Times New Roman&#39;;font-size:10.5000pt;&lt;br/&gt;mso-font-kerning:1.0000pt;&quot;&gt;我觉得：时间悄悄的流逝我们却一事无成&lt;/span&gt;&lt;span style=&quot;mso-spacerun:&#39;yes&#39;;font-family:宋体;mso-ascii-font-family:Calibri;&lt;br/&gt;mso-hansi-font-family:Calibri;mso-bidi-font-family:&#39;Times New Roman&#39;;font-size:10.5000pt;&lt;br/&gt;mso-font-kerning:1.0000pt;&quot;&gt;&lt;/span&gt;&lt;/p&gt;&lt;p class=&quot;MsoNormal&quot;&gt;&lt;span style=&quot;mso-spacerun:&#39;yes&#39;;font-family:宋体;mso-ascii-font-family:Calibri;&lt;br/&gt;mso-hansi-font-family:Calibri;mso-bidi-font-family:&#39;Times New Roman&#39;;font-size:10.5000pt;&lt;br/&gt;mso-font-kerning:1.0000pt;&quot;&gt;朋友觉得：时间的流逝代表着活着，只要活着就有希望，年纪轻轻的怎么能说一事无成呢&lt;/span&gt;&lt;/p&gt;" style="whiteSpace=wrap;html=1;" parent="1" vertex="1">
          <mxGeometry x="-799.06" y="240" width="410" height="134" as="geometry" />
        </mxCell>
        <mxCell id="OgMQkcCX62AdkXGcFwHr-2" value="" style="edgeStyle=orthogonalEdgeStyle;rounded=0;orthogonalLoop=1;jettySize=auto;html=1;" edge="1" parent="1" source="WU8Q_QROA6nWLspVZ2c3-60" target="OgMQkcCX62AdkXGcFwHr-1">
          <mxGeometry relative="1" as="geometry">
            <Array as="points">
              <mxPoint x="-270" y="-40" />
              <mxPoint x="-270" y="-40" />
            </Array>
          </mxGeometry>
        </mxCell>
        <mxCell id="WU8Q_QROA6nWLspVZ2c3-60" value="真正的共鸣是，大家在一条直线上，交叉前进，如果在某处停止不动了，就说明不是共鸣了" style="whiteSpace=wrap;html=1;" parent="1" vertex="1">
          <mxGeometry x="-389.06" y="-210" width="320" height="117" as="geometry" />
        </mxCell>
        <mxCell id="WU8Q_QROA6nWLspVZ2c3-71" style="edgeStyle=orthogonalEdgeStyle;rounded=0;orthogonalLoop=1;jettySize=auto;html=1;" parent="1" source="WU8Q_QROA6nWLspVZ2c3-65" target="WU8Q_QROA6nWLspVZ2c3-60" edge="1">
          <mxGeometry relative="1" as="geometry">
            <Array as="points">
              <mxPoint x="-285" y="-360" />
              <mxPoint x="-280" y="-360" />
            </Array>
          </mxGeometry>
        </mxCell>
        <mxCell id="WU8Q_QROA6nWLspVZ2c3-65" value="&lt;h3 style=&quot;font-variant-numeric: normal; font-variant-east-asian: normal; font-variant-alternates: normal; font-size-adjust: none; font-kerning: auto; font-optical-sizing: auto; font-feature-settings: normal; font-variation-settings: normal; font-variant-position: normal; font-variant-emoji: normal; font-stretch: normal; font-size: 20px; line-height: 30px; font-family: quote-cjk-patch, Inter, system-ui, -apple-system, BlinkMacSystemFont, &amp;quot;Segoe UI&amp;quot;, Roboto, Oxygen, Ubuntu, Cantarell, &amp;quot;Open Sans&amp;quot;, &amp;quot;Helvetica Neue&amp;quot;, sans-serif; margin: 32px 0px 16px; color: rgb(15, 17, 21); text-align: start; background-color: rgb(255, 255, 255);&quot;&gt;所以，情感共鸣的关键不是“想法一致”，而是“情感同频”&lt;/h3&gt;&lt;p style=&quot;margin: 16px 0px; color: rgb(15, 17, 21); font-family: quote-cjk-patch, Inter, system-ui, -apple-system, BlinkMacSystemFont, &amp;quot;Segoe UI&amp;quot;, Roboto, Oxygen, Ubuntu, Cantarell, &amp;quot;Open Sans&amp;quot;, &amp;quot;Helvetica Neue&amp;quot;, sans-serif; font-size: 16px; text-align: start; background-color: rgb(255, 255, 255);&quot; class=&quot;ds-markdown-paragraph&quot;&gt;它意味着：&lt;/p&gt;&lt;ul style=&quot;margin: 16px 0px; padding-left: 18px; color: rgb(15, 17, 21); font-family: quote-cjk-patch, Inter, system-ui, -apple-system, BlinkMacSystemFont, &amp;quot;Segoe UI&amp;quot;, Roboto, Oxygen, Ubuntu, Cantarell, &amp;quot;Open Sans&amp;quot;, &amp;quot;Helvetica Neue&amp;quot;, sans-serif; font-size: 16px; text-align: start; background-color: rgb(255, 255, 255);&quot;&gt;&lt;li&gt;&lt;p style=&quot;margin-top: 0px !important; margin-right: 0px; margin-bottom: 0px; margin-left: 0px;&quot; class=&quot;ds-markdown-paragraph&quot;&gt;&lt;span style=&quot;font-weight: 600;&quot;&gt;我理解了你的情绪从何而来&lt;/span&gt;（我理解了你的焦虑是基于自省，而非懒惰）。&lt;/p&gt;&lt;/li&gt;&lt;li style=&quot;margin-top: 6px;&quot;&gt;&lt;p style=&quot;margin-top: 0px !important; margin-right: 0px; margin-bottom: 0px; margin-left: 0px;&quot; class=&quot;ds-markdown-paragraph&quot;&gt;&lt;span style=&quot;font-weight: 600;&quot;&gt;我尊重你持有这种情绪的权利&lt;/span&gt;（我没有否定你说“你不该这么想”）。&lt;/p&gt;&lt;/li&gt;&lt;li style=&quot;margin-top: 6px;&quot;&gt;&lt;p style=&quot;margin-top: 0px !important; margin-right: 0px; margin-bottom: 0px; margin-left: 0px;&quot; class=&quot;ds-markdown-paragraph&quot;&gt;&lt;span style=&quot;font-weight: 600;&quot;&gt;我试图在你的情感框架内与你连接&lt;/span&gt;（朋友在您的“焦虑”框架内，给予了“希望”的引导，而非粗暴地打断）。&lt;/p&gt;&lt;/li&gt;&lt;/ul&gt;" style="rounded=1;whiteSpace=wrap;html=1;" parent="1" vertex="1">
          <mxGeometry x="-600" y="-890" width="630" height="380" as="geometry" />
        </mxCell>
        <mxCell id="OgMQkcCX62AdkXGcFwHr-5" value="" style="edgeStyle=orthogonalEdgeStyle;rounded=0;orthogonalLoop=1;jettySize=auto;html=1;" edge="1" parent="1" source="OgMQkcCX62AdkXGcFwHr-1" target="OgMQkcCX62AdkXGcFwHr-4">
          <mxGeometry relative="1" as="geometry" />
        </mxCell>
        <mxCell id="OgMQkcCX62AdkXGcFwHr-1" value="如果发生这种情况应该怎么办。我们应该如何转移话题" style="whiteSpace=wrap;html=1;" vertex="1" parent="1">
          <mxGeometry x="-320" y="10" width="120" height="60" as="geometry" />
        </mxCell>
        <mxCell id="OgMQkcCX62AdkXGcFwHr-4" value="这需要训练，使用连接词平稳的过渡" style="whiteSpace=wrap;html=1;" vertex="1" parent="1">
          <mxGeometry x="-320" y="150" width="120" height="60" as="geometry" />
        </mxCell>
      </root>
    </mxGraphModel>
  </diagram>
  <diagram id="Bx6yZ8XrSgNCIQ8utdJ8" name="第 2 页">
    <mxGraphModel dx="1506" dy="828" grid="1" gridSize="10" guides="1" tooltips="1" connect="1" arrows="1" fold="1" page="1" pageScale="1" pageWidth="827" pageHeight="1169" math="0" shadow="0">
      <root>
        <mxCell id="0" />
        <mxCell id="1" parent="0" />
        <mxCell id="HQ7Udl6bZPB1m5nYYWy9-3" value="" style="edgeStyle=orthogonalEdgeStyle;rounded=0;orthogonalLoop=1;jettySize=auto;html=1;" edge="1" parent="1" source="HQ7Udl6bZPB1m5nYYWy9-1" target="HQ7Udl6bZPB1m5nYYWy9-2">
          <mxGeometry relative="1" as="geometry" />
        </mxCell>
        <mxCell id="HQ7Udl6bZPB1m5nYYWy9-1" value="你在害怕什么" style="rounded=1;whiteSpace=wrap;html=1;" vertex="1" parent="1">
          <mxGeometry x="540" y="170" width="120" height="60" as="geometry" />
        </mxCell>
        <mxCell id="HQ7Udl6bZPB1m5nYYWy9-5" value="" style="edgeStyle=orthogonalEdgeStyle;rounded=0;orthogonalLoop=1;jettySize=auto;html=1;" edge="1" parent="1" source="HQ7Udl6bZPB1m5nYYWy9-2" target="HQ7Udl6bZPB1m5nYYWy9-4">
          <mxGeometry relative="1" as="geometry" />
        </mxCell>
        <mxCell id="HQ7Udl6bZPB1m5nYYWy9-2" value="我害怕太累了做不了" style="whiteSpace=wrap;html=1;rounded=1;" vertex="1" parent="1">
          <mxGeometry x="540" y="310" width="120" height="60" as="geometry" />
        </mxCell>
        <mxCell id="HQ7Udl6bZPB1m5nYYWy9-7" value="" style="edgeStyle=orthogonalEdgeStyle;rounded=0;orthogonalLoop=1;jettySize=auto;html=1;" edge="1" parent="1" source="HQ7Udl6bZPB1m5nYYWy9-4" target="HQ7Udl6bZPB1m5nYYWy9-6">
          <mxGeometry relative="1" as="geometry" />
        </mxCell>
        <mxCell id="HQ7Udl6bZPB1m5nYYWy9-4" value="做不了就不做吧" style="whiteSpace=wrap;html=1;rounded=1;" vertex="1" parent="1">
          <mxGeometry x="540" y="450" width="120" height="60" as="geometry" />
        </mxCell>
        <mxCell id="HQ7Udl6bZPB1m5nYYWy9-9" value="" style="edgeStyle=orthogonalEdgeStyle;rounded=0;orthogonalLoop=1;jettySize=auto;html=1;" edge="1" parent="1" source="HQ7Udl6bZPB1m5nYYWy9-6" target="HQ7Udl6bZPB1m5nYYWy9-8">
          <mxGeometry relative="1" as="geometry" />
        </mxCell>
        <mxCell id="HQ7Udl6bZPB1m5nYYWy9-6" value="谁叫你做呢" style="whiteSpace=wrap;html=1;rounded=1;" vertex="1" parent="1">
          <mxGeometry x="540" y="590" width="120" height="60" as="geometry" />
        </mxCell>
        <mxCell id="HQ7Udl6bZPB1m5nYYWy9-11" value="" style="edgeStyle=orthogonalEdgeStyle;rounded=0;orthogonalLoop=1;jettySize=auto;html=1;" edge="1" parent="1" source="HQ7Udl6bZPB1m5nYYWy9-8" target="HQ7Udl6bZPB1m5nYYWy9-10">
          <mxGeometry relative="1" as="geometry" />
        </mxCell>
        <mxCell id="HQ7Udl6bZPB1m5nYYWy9-8" value="少点钱就少点钱吧" style="whiteSpace=wrap;html=1;rounded=1;" vertex="1" parent="1">
          <mxGeometry x="340" y="590" width="120" height="60" as="geometry" />
        </mxCell>
        <mxCell id="HQ7Udl6bZPB1m5nYYWy9-13" value="" style="edgeStyle=orthogonalEdgeStyle;rounded=0;orthogonalLoop=1;jettySize=auto;html=1;" edge="1" parent="1" source="HQ7Udl6bZPB1m5nYYWy9-10" target="HQ7Udl6bZPB1m5nYYWy9-12">
          <mxGeometry relative="1" as="geometry" />
        </mxCell>
        <mxCell id="HQ7Udl6bZPB1m5nYYWy9-10" value="以后可以去当保安" style="whiteSpace=wrap;html=1;rounded=1;" vertex="1" parent="1">
          <mxGeometry x="340" y="450" width="120" height="60" as="geometry" />
        </mxCell>
        <mxCell id="HQ7Udl6bZPB1m5nYYWy9-15" value="" style="edgeStyle=orthogonalEdgeStyle;rounded=0;orthogonalLoop=1;jettySize=auto;html=1;" edge="1" parent="1" source="HQ7Udl6bZPB1m5nYYWy9-12" target="HQ7Udl6bZPB1m5nYYWy9-14">
          <mxGeometry relative="1" as="geometry" />
        </mxCell>
        <mxCell id="HQ7Udl6bZPB1m5nYYWy9-12" value="只有经历过才会更努力" style="whiteSpace=wrap;html=1;rounded=1;" vertex="1" parent="1">
          <mxGeometry x="340" y="310" width="120" height="60" as="geometry" />
        </mxCell>
        <mxCell id="HQ7Udl6bZPB1m5nYYWy9-17" value="" style="edgeStyle=orthogonalEdgeStyle;rounded=0;orthogonalLoop=1;jettySize=auto;html=1;" edge="1" parent="1" source="HQ7Udl6bZPB1m5nYYWy9-14" target="HQ7Udl6bZPB1m5nYYWy9-16">
          <mxGeometry relative="1" as="geometry" />
        </mxCell>
        <mxCell id="HQ7Udl6bZPB1m5nYYWy9-14" value="你看你同学就是因为经历过那个打暑假工的辛苦才知道努力的重要性" style="whiteSpace=wrap;html=1;rounded=1;" vertex="1" parent="1">
          <mxGeometry x="340" y="170" width="120" height="60" as="geometry" />
        </mxCell>
        <mxCell id="HQ7Udl6bZPB1m5nYYWy9-19" value="" style="edgeStyle=orthogonalEdgeStyle;rounded=0;orthogonalLoop=1;jettySize=auto;html=1;" edge="1" parent="1" source="HQ7Udl6bZPB1m5nYYWy9-16" target="HQ7Udl6bZPB1m5nYYWy9-18">
          <mxGeometry relative="1" as="geometry" />
        </mxCell>
        <mxCell id="HQ7Udl6bZPB1m5nYYWy9-16" value="所以才知道要如何努力，并且你还有减肥，现在太胖了对你的生活已经开始有影响了" style="whiteSpace=wrap;html=1;rounded=1;" vertex="1" parent="1">
          <mxGeometry x="100" y="160" width="160" height="70" as="geometry" />
        </mxCell>
        <mxCell id="HQ7Udl6bZPB1m5nYYWy9-21" value="" style="edgeStyle=orthogonalEdgeStyle;rounded=0;orthogonalLoop=1;jettySize=auto;html=1;" edge="1" parent="1" source="HQ7Udl6bZPB1m5nYYWy9-18" target="HQ7Udl6bZPB1m5nYYWy9-20">
          <mxGeometry relative="1" as="geometry" />
        </mxCell>
        <mxCell id="HQ7Udl6bZPB1m5nYYWy9-18" value="又不是叫你做一辈子，急什么呢" style="whiteSpace=wrap;html=1;rounded=1;" vertex="1" parent="1">
          <mxGeometry x="120" y="315" width="120" height="60" as="geometry" />
        </mxCell>
        <mxCell id="HQ7Udl6bZPB1m5nYYWy9-23" value="" style="edgeStyle=orthogonalEdgeStyle;rounded=0;orthogonalLoop=1;jettySize=auto;html=1;" edge="1" parent="1" source="HQ7Udl6bZPB1m5nYYWy9-20" target="HQ7Udl6bZPB1m5nYYWy9-22">
          <mxGeometry relative="1" as="geometry" />
        </mxCell>
        <mxCell id="HQ7Udl6bZPB1m5nYYWy9-20" value="难道几个月你都做不了吗" style="whiteSpace=wrap;html=1;rounded=1;" vertex="1" parent="1">
          <mxGeometry x="120" y="455" width="120" height="60" as="geometry" />
        </mxCell>
        <mxCell id="HQ7Udl6bZPB1m5nYYWy9-22" value="而且你这么聪明还怕这个吗" style="whiteSpace=wrap;html=1;rounded=1;" vertex="1" parent="1">
          <mxGeometry x="120" y="595" width="120" height="60" as="geometry" />
        </mxCell>
      </root>
    </mxGraphModel>
  </diagram>
  <diagram id="uf1ThOEdcKUl4cuZqR92" name="第 3 页">
    <mxGraphModel dx="1506" dy="828" grid="1" gridSize="10" guides="1" tooltips="1" connect="1" arrows="1" fold="1" page="1" pageScale="1" pageWidth="827" pageHeight="1169" math="0" shadow="0">
      <root>
        <mxCell id="0" />
        <mxCell id="1" parent="0" />
        <mxCell id="yPwO-NxsoEgP8xCJXwc1-3" value="" style="edgeStyle=orthogonalEdgeStyle;rounded=0;orthogonalLoop=1;jettySize=auto;html=1;" parent="1" source="yPwO-NxsoEgP8xCJXwc1-1" target="yPwO-NxsoEgP8xCJXwc1-2" edge="1">
          <mxGeometry relative="1" as="geometry" />
        </mxCell>
        <mxCell id="yPwO-NxsoEgP8xCJXwc1-1" value="为什么会这样，是因为你想的太多了，现在先要关注眼前的东西，你想那么多干嘛呢，你要是这么想，你一辈子都不会开心的，人总是会死你还那么努力干嘛呢" style="rounded=1;whiteSpace=wrap;html=1;" parent="1" vertex="1">
          <mxGeometry x="400" y="160" width="190" height="80" as="geometry" />
        </mxCell>
        <mxCell id="yPwO-NxsoEgP8xCJXwc1-5" value="" style="edgeStyle=orthogonalEdgeStyle;rounded=0;orthogonalLoop=1;jettySize=auto;html=1;" parent="1" source="yPwO-NxsoEgP8xCJXwc1-2" target="yPwO-NxsoEgP8xCJXwc1-4" edge="1">
          <mxGeometry relative="1" as="geometry" />
        </mxCell>
        <mxCell id="yPwO-NxsoEgP8xCJXwc1-2" value="按照你以前的想法，你要做自媒体实现财务自由" style="whiteSpace=wrap;html=1;rounded=1;" parent="1" vertex="1">
          <mxGeometry x="435" y="330" width="120" height="60" as="geometry" />
        </mxCell>
        <mxCell id="yPwO-NxsoEgP8xCJXwc1-7" value="" style="edgeStyle=orthogonalEdgeStyle;rounded=0;orthogonalLoop=1;jettySize=auto;html=1;" parent="1" source="yPwO-NxsoEgP8xCJXwc1-4" target="yPwO-NxsoEgP8xCJXwc1-6" edge="1">
          <mxGeometry relative="1" as="geometry" />
        </mxCell>
        <mxCell id="yPwO-NxsoEgP8xCJXwc1-4" value="怎样才叫财务自由呢？" style="whiteSpace=wrap;html=1;rounded=1;" parent="1" vertex="1">
          <mxGeometry x="435" y="470" width="120" height="60" as="geometry" />
        </mxCell>
        <mxCell id="yPwO-NxsoEgP8xCJXwc1-9" value="" style="edgeStyle=orthogonalEdgeStyle;rounded=0;orthogonalLoop=1;jettySize=auto;html=1;" parent="1" source="yPwO-NxsoEgP8xCJXwc1-6" target="yPwO-NxsoEgP8xCJXwc1-8" edge="1">
          <mxGeometry relative="1" as="geometry" />
        </mxCell>
        <mxCell id="yPwO-NxsoEgP8xCJXwc1-6" value="你想要一个月赚多少钱呢？" style="whiteSpace=wrap;html=1;rounded=1;" parent="1" vertex="1">
          <mxGeometry x="435" y="610" width="120" height="60" as="geometry" />
        </mxCell>
        <mxCell id="yPwO-NxsoEgP8xCJXwc1-11" value="" style="edgeStyle=orthogonalEdgeStyle;rounded=0;orthogonalLoop=1;jettySize=auto;html=1;" parent="1" source="yPwO-NxsoEgP8xCJXwc1-8" target="yPwO-NxsoEgP8xCJXwc1-10" edge="1">
          <mxGeometry relative="1" as="geometry" />
        </mxCell>
        <mxCell id="yPwO-NxsoEgP8xCJXwc1-8" value="你应该怎么做呢" style="whiteSpace=wrap;html=1;rounded=1;" parent="1" vertex="1">
          <mxGeometry x="435" y="750" width="120" height="60" as="geometry" />
        </mxCell>
        <mxCell id="yPwO-NxsoEgP8xCJXwc1-13" value="" style="edgeStyle=orthogonalEdgeStyle;rounded=0;orthogonalLoop=1;jettySize=auto;html=1;" parent="1" source="yPwO-NxsoEgP8xCJXwc1-10" target="yPwO-NxsoEgP8xCJXwc1-12" edge="1">
          <mxGeometry relative="1" as="geometry" />
        </mxCell>
        <mxCell id="yPwO-NxsoEgP8xCJXwc1-17" value="" style="edgeStyle=orthogonalEdgeStyle;rounded=0;orthogonalLoop=1;jettySize=auto;html=1;" parent="1" source="yPwO-NxsoEgP8xCJXwc1-10" target="yPwO-NxsoEgP8xCJXwc1-16" edge="1">
          <mxGeometry relative="1" as="geometry" />
        </mxCell>
        <mxCell id="yPwO-NxsoEgP8xCJXwc1-10" value="我想要一个月月入百万，" style="whiteSpace=wrap;html=1;rounded=1;" parent="1" vertex="1">
          <mxGeometry x="235" y="750" width="120" height="60" as="geometry" />
        </mxCell>
        <mxCell id="yPwO-NxsoEgP8xCJXwc1-15" value="" style="edgeStyle=orthogonalEdgeStyle;rounded=0;orthogonalLoop=1;jettySize=auto;html=1;" parent="1" source="yPwO-NxsoEgP8xCJXwc1-12" target="yPwO-NxsoEgP8xCJXwc1-14" edge="1">
          <mxGeometry relative="1" as="geometry" />
        </mxCell>
        <mxCell id="Ve60eCvlbyGlXYz6HCkA-8" value="" style="edgeStyle=orthogonalEdgeStyle;rounded=0;orthogonalLoop=1;jettySize=auto;html=1;" edge="1" parent="1" source="yPwO-NxsoEgP8xCJXwc1-12" target="Ve60eCvlbyGlXYz6HCkA-7">
          <mxGeometry relative="1" as="geometry" />
        </mxCell>
        <mxCell id="yPwO-NxsoEgP8xCJXwc1-12" value="你觉得这个现实吗。你现在月入多少钱呢" style="whiteSpace=wrap;html=1;rounded=1;" parent="1" vertex="1">
          <mxGeometry x="235" y="890" width="120" height="60" as="geometry" />
        </mxCell>
        <mxCell id="yPwO-NxsoEgP8xCJXwc1-14" value="月入0元可能可以月入5000元左右" style="whiteSpace=wrap;html=1;rounded=1;" parent="1" vertex="1">
          <mxGeometry x="435" y="890" width="120" height="60" as="geometry" />
        </mxCell>
        <mxCell id="yPwO-NxsoEgP8xCJXwc1-19" value="" style="edgeStyle=orthogonalEdgeStyle;rounded=0;orthogonalLoop=1;jettySize=auto;html=1;" parent="1" source="yPwO-NxsoEgP8xCJXwc1-16" target="yPwO-NxsoEgP8xCJXwc1-18" edge="1">
          <mxGeometry relative="1" as="geometry" />
        </mxCell>
        <mxCell id="yPwO-NxsoEgP8xCJXwc1-16" value="怎么才能·月入百万，依靠什么赚这么多钱" style="whiteSpace=wrap;html=1;rounded=1;" parent="1" vertex="1">
          <mxGeometry x="35" y="750" width="120" height="60" as="geometry" />
        </mxCell>
        <mxCell id="Ve60eCvlbyGlXYz6HCkA-2" value="" style="edgeStyle=orthogonalEdgeStyle;rounded=0;orthogonalLoop=1;jettySize=auto;html=1;" edge="1" parent="1" source="yPwO-NxsoEgP8xCJXwc1-18" target="Ve60eCvlbyGlXYz6HCkA-1">
          <mxGeometry relative="1" as="geometry" />
        </mxCell>
        <mxCell id="yPwO-NxsoEgP8xCJXwc1-18" value="就坐在·这里玩可以月入百万吗" style="whiteSpace=wrap;html=1;rounded=1;" parent="1" vertex="1">
          <mxGeometry x="35" y="610" width="120" height="60" as="geometry" />
        </mxCell>
        <mxCell id="Ve60eCvlbyGlXYz6HCkA-4" value="" style="edgeStyle=orthogonalEdgeStyle;rounded=0;orthogonalLoop=1;jettySize=auto;html=1;" edge="1" parent="1" source="Ve60eCvlbyGlXYz6HCkA-1" target="Ve60eCvlbyGlXYz6HCkA-3">
          <mxGeometry relative="1" as="geometry" />
        </mxCell>
        <mxCell id="Ve60eCvlbyGlXYz6HCkA-1" value="我觉得这样不行，那些人必须要掌握很多很多的知识，至少是要有一个信念这些可以是任何东西" style="whiteSpace=wrap;html=1;rounded=1;" vertex="1" parent="1">
          <mxGeometry x="20" y="450" width="135" height="80" as="geometry" />
        </mxCell>
        <mxCell id="Ve60eCvlbyGlXYz6HCkA-6" value="" style="edgeStyle=orthogonalEdgeStyle;rounded=0;orthogonalLoop=1;jettySize=auto;html=1;" edge="1" parent="1" source="Ve60eCvlbyGlXYz6HCkA-3" target="Ve60eCvlbyGlXYz6HCkA-5">
          <mxGeometry relative="1" as="geometry" />
        </mxCell>
        <mxCell id="Ve60eCvlbyGlXYz6HCkA-3" value="他们是依靠什么坚持下来的呢，或者说你是依靠什么坚持下来的" style="whiteSpace=wrap;html=1;rounded=1;" vertex="1" parent="1">
          <mxGeometry x="35" y="330" width="120" height="60" as="geometry" />
        </mxCell>
        <mxCell id="Ve60eCvlbyGlXYz6HCkA-5" value="你这样做的目的是什么，要怎么做呢， 你想要月入百万，可是要咋么" style="whiteSpace=wrap;html=1;rounded=1;" vertex="1" parent="1">
          <mxGeometry x="35" y="190" width="120" height="60" as="geometry" />
        </mxCell>
        <mxCell id="Ve60eCvlbyGlXYz6HCkA-10" value="" style="edgeStyle=orthogonalEdgeStyle;rounded=0;orthogonalLoop=1;jettySize=auto;html=1;" edge="1" parent="1" source="Ve60eCvlbyGlXYz6HCkA-7" target="Ve60eCvlbyGlXYz6HCkA-9">
          <mxGeometry relative="1" as="geometry" />
        </mxCell>
        <mxCell id="Ve60eCvlbyGlXYz6HCkA-7" value="你觉得怎么样才能月入百万，或者说为啥要月入百万" style="whiteSpace=wrap;html=1;rounded=1;" vertex="1" parent="1">
          <mxGeometry x="235" y="1030" width="120" height="60" as="geometry" />
        </mxCell>
        <mxCell id="Ve60eCvlbyGlXYz6HCkA-12" value="" style="edgeStyle=orthogonalEdgeStyle;rounded=0;orthogonalLoop=1;jettySize=auto;html=1;" edge="1" parent="1" source="Ve60eCvlbyGlXYz6HCkA-9" target="Ve60eCvlbyGlXYz6HCkA-11">
          <mxGeometry relative="1" as="geometry" />
        </mxCell>
        <mxCell id="Ve60eCvlbyGlXYz6HCkA-9" value="这只是目标你的理由呢。人家说做任何事都是需要理由的，那你的理由又是什么" style="whiteSpace=wrap;html=1;rounded=1;" vertex="1" parent="1">
          <mxGeometry x="435" y="1030" width="120" height="60" as="geometry" />
        </mxCell>
        <mxCell id="Ve60eCvlbyGlXYz6HCkA-14" value="" style="edgeStyle=orthogonalEdgeStyle;rounded=0;orthogonalLoop=1;jettySize=auto;html=1;" edge="1" parent="1" source="Ve60eCvlbyGlXYz6HCkA-11" target="Ve60eCvlbyGlXYz6HCkA-13">
          <mxGeometry relative="1" as="geometry" />
        </mxCell>
        <mxCell id="Ve60eCvlbyGlXYz6HCkA-11" value="我发现你好像根本不知道自己要什么" style="whiteSpace=wrap;html=1;rounded=1;" vertex="1" parent="1">
          <mxGeometry x="635" y="1030" width="120" height="60" as="geometry" />
        </mxCell>
        <mxCell id="Ve60eCvlbyGlXYz6HCkA-16" value="" style="edgeStyle=orthogonalEdgeStyle;rounded=0;orthogonalLoop=1;jettySize=auto;html=1;" edge="1" parent="1" source="Ve60eCvlbyGlXYz6HCkA-13" target="Ve60eCvlbyGlXYz6HCkA-15">
          <mxGeometry relative="1" as="geometry" />
        </mxCell>
        <mxCell id="Ve60eCvlbyGlXYz6HCkA-13" value="那么我来问你，你对自己的未来有什么规" style="whiteSpace=wrap;html=1;rounded=1;" vertex="1" parent="1">
          <mxGeometry x="635" y="1170" width="120" height="60" as="geometry" />
        </mxCell>
        <mxCell id="Ve60eCvlbyGlXYz6HCkA-18" value="" style="edgeStyle=orthogonalEdgeStyle;rounded=0;orthogonalLoop=1;jettySize=auto;html=1;" edge="1" parent="1" source="Ve60eCvlbyGlXYz6HCkA-15" target="Ve60eCvlbyGlXYz6HCkA-17">
          <mxGeometry relative="1" as="geometry" />
        </mxCell>
        <mxCell id="Ve60eCvlbyGlXYz6HCkA-15" value="月入百万" style="whiteSpace=wrap;html=1;rounded=1;" vertex="1" parent="1">
          <mxGeometry x="635" y="1310" width="120" height="60" as="geometry" />
        </mxCell>
        <mxCell id="Ve60eCvlbyGlXYz6HCkA-17" value="你为什么要月入百万，你要月入百万做什么呢？" style="whiteSpace=wrap;html=1;rounded=1;" vertex="1" parent="1">
          <mxGeometry x="435" y="1310" width="120" height="60" as="geometry" />
        </mxCell>
      </root>
    </mxGraphModel>
  </diagram>
</mxfile>
